# Blender v2.69 (sub 0) OBJ File: ''
# www.blender.org
mtllib rock.mtl
o rock
v -0.302280 -0.038679 0.243526
v -0.035263 -0.059689 0.441055
v -0.074707 0.144985 0.409377
v -0.302280 -0.038679 0.243526
v -0.074578 0.229084 0.400631
v -0.302280 -0.038679 0.243526
v -0.148063 0.266577 0.285649
v -0.302280 -0.038679 0.243526
v -0.234392 0.297855 0.201252
v -0.302280 -0.038679 0.243526
v -0.317644 0.307697 0.100655
v -0.302280 -0.038679 0.243526
v -0.358481 0.145574 0.035750
v -0.302280 -0.038679 0.243526
v -0.434159 0.081939 -0.076357
v -0.302280 -0.038679 0.243526
v -0.438930 -0.050896 -0.073266
v -0.438930 -0.050896 -0.073266
v -0.228915 -0.029052 0.177488
v -0.035263 -0.059689 0.441055
v 0.285957 -0.027487 0.364959
v 0.233280 0.146957 0.304784
v 0.172428 0.325424 0.229596
v 0.093029 0.331647 0.121698
v -0.001391 0.429370 -0.001070
v -0.115882 0.457805 -0.164130
v -0.223308 0.352599 -0.290934
v -0.288803 0.179700 -0.371383
v -0.283150 -0.028633 -0.363783
v -0.438930 -0.050896 -0.073266
v -0.283150 -0.028633 -0.363783
v 0.001087 -0.032946 0.000836
v -0.438930 -0.050896 -0.073266
v 0.285957 -0.027487 0.364959
v 0.285957 -0.027487 0.364959
v -0.035263 -0.059689 0.441055
v 0.438893 -0.036326 0.073268
v 0.417939 0.109606 0.064576
v 0.399899 0.147286 0.030069
v 0.302097 0.262901 -0.111283
v 0.215436 0.293881 -0.197517
v 0.134410 0.261699 -0.297759
v 0.109717 0.144429 -0.329893
v 0.059171 0.131730 -0.421694
v 0.035259 0.001248 -0.441078
v -0.283150 -0.028633 -0.363783
v 0.035259 0.001248 -0.441078
v 0.229317 -0.033026 -0.177829
v -0.283150 -0.028633 -0.363783
v 0.438893 -0.036326 0.073268
v 0.438893 -0.036326 0.073268
v 0.285957 -0.027487 0.364959
v 0.306197 -0.031678 -0.239240
v 0.306197 -0.031678 -0.239240
v 0.306197 -0.031678 -0.239240
v 0.306197 -0.031678 -0.239240
v 0.306197 -0.031678 -0.239240
v 0.306197 -0.031678 -0.239240
v 0.306197 -0.031678 -0.239240
v 0.306197 -0.031678 -0.239240
v 0.035259 0.001248 -0.441078
v 0.438893 -0.036326 0.073268
vt 0.000000 1.000000
vt 0.000000 0.750000
vt 0.062500 0.750000
vt 0.062500 1.000000
vt 0.125000 0.750000
vt 0.125000 1.000000
vt 0.187500 0.750000
vt 0.187500 1.000000
vt 0.250000 0.750000
vt 0.250000 1.000000
vt 0.312500 0.750000
vt 0.312500 1.000000
vt 0.375000 0.750000
vt 0.375000 1.000000
vt 0.437500 0.750000
vt 0.437500 1.000000
vt 0.500000 0.750000
vt 1.000000 0.750000
vt 0.000000 0.500000
vt 0.062500 0.500000
vt 0.125000 0.500000
vt 0.187500 0.500000
vt 0.250000 0.500000
vt 0.312500 0.500000
vt 0.375000 0.500000
vt 0.437500 0.500000
vt 0.500000 0.500000
vt 1.000000 0.500000
vt 0.000000 0.250000
vt 0.062500 0.250000
vt 0.125000 0.250000
vt 0.187500 0.250000
vt 0.250000 0.250000
vt 0.312500 0.250000
vt 0.375000 0.250000
vt 0.437500 0.250000
vt 0.500000 0.250000
vt 1.000000 0.250000
vt 0.000000 0.000000
vt 0.062500 0.000000
vt 0.125000 0.000000
vt 0.187500 0.000000
vt 0.250000 0.000000
vt 0.312500 0.000000
vt 0.375000 0.000000
vt 0.437500 0.000000
vn -0.594183 0.009970 0.804268
vn -0.121452 0.169092 0.978088
vn -0.164493 0.153975 0.974286
vn -0.629070 0.081362 0.773079
vn -0.112469 0.499365 0.859061
vn -0.755723 0.301578 0.581320
vn -0.404056 0.690640 0.599796
vn -0.639487 0.221481 0.736208
vn -0.487095 0.640096 0.594151
vn -0.738877 0.228673 0.633852
vn -0.769755 0.580054 0.266486
vn -0.934920 0.099080 0.340747
vn -0.926664 0.324473 0.189763
vn -0.862316 0.239864 0.445955
vn -0.936366 0.350283 -0.022823
vn -0.917991 0.042148 0.394355
vn -0.998918 0.035170 -0.030414
vn 0.064982 -0.995221 -0.072891
vn 0.118671 -0.992850 -0.012900
vn 0.069766 -0.995271 -0.067584
vn 0.015873 -0.991782 -0.126947
vn 0.523465 0.378800 0.763214
vn 0.531114 0.432844 0.728355
vn 0.334819 0.842219 0.422498
vn 0.193823 0.958098 0.210791
vn 0.233680 0.953001 0.192755
vn -0.064150 0.962340 -0.264138
vn -0.425825 0.701102 -0.571917
vn -0.619983 0.297403 -0.726035
vn -0.634981 -0.036849 -0.771649
vn 0.049130 -0.997535 -0.050099
vn 0.030341 -0.997646 0.061496
vn 0.008176 -0.999433 0.032676
vn 0.017403 -0.998850 0.044677
vn -0.003382 -0.999839 0.017636
vn 0.061024 -0.985331 -0.159371
vn 0.988156 0.144896 0.050521
vn 0.929235 0.352125 0.111941
vn 0.890238 0.452305 -0.053817
vn 0.705169 0.655042 -0.271397
vn 0.543309 0.717402 -0.436062
vn 0.265655 0.505643 -0.820824
vn 0.505593 0.500593 -0.702696
vn 0.369788 0.446289 -0.814913
vn 0.193443 0.065165 -0.978945
vn 0.051983 -0.984667 -0.166520
vn -0.005968 -0.999956 -0.007176
vn -0.006254 -0.999952 -0.007541
vn -0.006129 -0.999954 -0.007382
vn -0.006434 -0.999949 -0.007772
vn -0.011713 -0.999640 0.024150
vn 0.915612 0.108410 -0.387171
vn 0.920037 0.091589 -0.380977
vn 0.875053 0.203036 -0.439385
vn 0.725477 0.282674 -0.627518
vn 0.700872 0.279496 -0.656248
vn 0.507041 0.126845 -0.852538
vn 0.700709 0.544403 -0.461121
vn 0.598121 0.009435 -0.801350
vn -0.025187 -0.998253 -0.053443
vn -0.024801 -0.998289 -0.052962
vn -0.054122 -0.994508 -0.089585
vn 0.004221 -0.999852 -0.016663
usemtl rock
s 1
f 1/1/1 2/2/2 3/3/3
f 4/4/4 3/3/3 5/5/5
f 6/6/6 5/5/5 7/7/7
f 8/8/8 7/7/7 9/9/9
f 10/10/10 9/9/9 11/11/11
f 12/12/12 11/11/11 13/13/13
f 14/14/14 13/13/13 15/15/15
f 16/16/16 15/15/15 17/17/17
f 1/1/18 18/18/19 19/2/20
f 1/1/18 19/2/20 20/18/21
f 2/2/2 21/19/22 22/20/23
f 2/2/2 22/20/23 3/3/3
f 3/3/3 22/20/23 23/21/24
f 3/3/3 23/21/24 5/5/5
f 5/5/5 23/21/24 24/22/25
f 5/5/5 24/22/25 7/7/7
f 7/7/7 24/22/25 25/23/26
f 7/7/7 25/23/26 9/9/9
f 9/9/9 25/23/26 26/24/27
f 9/9/9 26/24/27 11/11/11
f 11/11/11 26/24/27 27/25/28
f 11/11/11 27/25/28 13/13/13
f 13/13/13 27/25/28 28/26/29
f 13/13/13 28/26/29 15/15/15
f 15/15/15 28/26/29 29/27/30
f 15/15/15 29/27/30 17/17/17
f 30/18/31 31/28/31 32/19/31
f 33/18/32 32/19/33 19/2/34
f 19/2/34 32/19/33 34/28/35
f 19/2/36 35/28/36 36/18/36
f 21/19/22 37/29/37 38/30/38
f 21/19/22 38/30/38 22/20/23
f 22/20/23 38/30/38 39/31/39
f 22/20/23 39/31/39 23/21/24
f 23/21/24 39/31/39 40/32/40
f 23/21/24 40/32/40 24/22/25
f 24/22/25 40/32/40 41/33/41
f 24/22/25 41/33/41 25/23/26
f 25/23/26 41/33/41 42/34/42
f 25/23/26 42/34/42 26/24/27
f 26/24/27 42/34/42 43/35/43
f 26/24/27 43/35/43 27/25/28
f 27/25/28 43/35/43 44/36/44
f 27/25/28 44/36/44 28/26/29
f 28/26/29 44/36/44 45/37/45
f 28/26/29 45/37/45 29/27/30
f 46/28/46 47/38/46 48/29/46
f 49/28/47 48/29/48 32/19/49
f 32/19/49 48/29/48 50/38/50
f 32/19/51 51/38/51 52/28/51
f 53/39/52 38/30/38 37/29/37
f 54/40/53 39/31/39 38/30/38
f 55/41/54 40/32/40 39/31/39
f 56/42/55 41/33/41 40/32/40
f 57/43/56 42/34/42 41/33/41
f 58/44/57 43/35/43 42/34/42
f 59/45/58 44/36/44 43/35/43
f 60/46/59 45/37/45 44/36/44
f 53/39/60 48/29/61 61/38/62
f 53/39/60 62/38/63 48/29/61
