# Blender v2.69 (sub 0) OBJ File: ''
# www.blender.org
mtllib tree.mtl
o foot
v 0.000000 -0.003918 0.000000
v 0.103615 -0.003918 0.000000
v 0.051807 -0.003918 -0.089733
v -0.051807 -0.003918 -0.089733
v -0.103615 -0.003918 0.000000
v -0.051807 -0.003918 0.089733
v 0.051807 -0.003918 0.089733
v 0.103615 0.306926 0.000000
v 0.051807 0.306926 -0.089733
v -0.051807 0.306926 -0.089733
v -0.103615 0.306926 0.000000
v -0.051807 0.306926 0.089733
v 0.051807 0.306926 0.089733
v 0.000000 0.306926 0.000000
v 0.051807 -0.003918 -0.089733
v 0.051807 -0.003918 -0.089733
v 0.051807 0.306926 -0.089733
v 0.051807 -0.003918 -0.089733
v 0.051807 0.306926 -0.089733
vt 0.500000 0.000000
vt 0.916667 0.000000
vt 0.750000 0.000000
vt 0.083333 0.000000
vt -0.083333 0.000000
vt 0.250000 0.000000
vt 0.416667 0.000000
vt 0.583333 0.000000
vt 0.916667 1.000000
vt 0.750000 1.000000
vt 0.083333 1.000000
vt -0.083333 1.000000
vt 0.250000 1.000000
vt 0.416667 1.000000
vt 0.583333 1.000000
vt 0.500000 1.000000
vn 0.000000 -1.000000 0.000000
vn 0.720577 -0.554700 -0.416025
vn 0.792383 -0.609973 0.000000
vn -0.396203 -0.609994 -0.686243
vn -0.792383 -0.609973 0.000000
vn -0.396191 -0.609973 0.686239
vn 0.396191 -0.609973 0.686239
vn 0.720577 0.554700 -0.416025
vn 0.792383 0.609973 0.000000
vn 0.000000 0.000000 -1.000000
vn -0.497965 0.766668 -0.405279
vn -0.792383 0.609973 0.000000
vn -0.396191 0.609973 0.686239
vn 0.396191 0.609973 0.686239
vn 0.000000 1.000000 0.000000
vn 0.000000 1.000000 0.000001
usemtl foot
s 1
f 1/1/1 3/2/2 2/3/3
f 1/1/1 4/4/4 15/5/1
f 1/1/1 5/6/5 4/4/4
f 1/1/1 6/7/6 5/6/5
f 1/1/1 7/8/7 6/7/6
f 1/1/1 2/3/3 7/8/7
f 2/3/3 9/9/8 8/10/9
f 2/3/3 3/2/2 9/9/8
f 16/5/10 10/11/10 17/12/10
f 18/5/10 4/4/4 10/11/11
f 4/4/4 11/13/12 10/11/11
f 4/4/4 5/6/5 11/13/12
f 5/6/5 12/14/13 11/13/12
f 5/6/5 6/7/6 12/14/13
f 6/7/6 13/15/14 12/14/13
f 6/7/6 7/8/7 13/15/14
f 7/8/7 8/10/9 13/15/14
f 7/8/7 2/3/3 8/10/9
f 14/16/15 8/10/9 9/9/8
f 14/16/15 19/12/16 10/11/11
f 14/16/15 10/11/11 11/13/12
f 14/16/15 11/13/12 12/14/13
f 14/16/15 12/14/13 13/15/14
f 14/16/15 13/15/14 8/10/9
o tree
v -0.000000 1.200138 -0.000000
v -0.000000 1.041274 -0.284157
v -0.167023 1.041274 -0.229887
v -0.270249 1.041274 -0.087809
v -0.270249 1.041274 0.087809
v -0.167023 1.041274 0.229887
v -0.000000 1.041274 0.284157
v 0.167023 1.041274 0.229887
v 0.270249 1.041274 0.087809
v 0.270249 1.041274 -0.087809
v 0.167023 1.041274 -0.229888
v -0.000000 0.742718 -0.459775
v -0.270249 0.742718 -0.371966
v -0.437272 0.742718 -0.142078
v -0.437272 0.742718 0.142078
v -0.270249 0.742718 0.371966
v -0.000000 0.742718 0.459775
v 0.270249 0.742718 0.371966
v 0.437272 0.742718 0.142078
v 0.437272 0.742718 -0.142079
v 0.270249 0.742718 -0.371966
v -0.000000 0.418509 -0.459775
v -0.270249 0.418509 -0.371966
v -0.437272 0.418509 -0.142078
v -0.437272 0.418509 0.142078
v -0.270249 0.418509 0.371966
v -0.000000 0.418509 0.459775
v 0.270249 0.418509 0.371966
v 0.437272 0.418509 0.142078
v 0.437272 0.418509 -0.142079
v 0.270249 0.418509 -0.371966
v -0.000000 0.192482 -0.284156
v -0.167023 0.192482 -0.229887
v -0.270249 0.192482 -0.087809
v -0.270249 0.192482 0.087809
v -0.167023 0.192482 0.229887
v -0.000000 0.192482 0.284157
v 0.167023 0.192482 0.229887
v 0.270249 0.192482 0.087809
v 0.270249 0.192482 -0.087809
v 0.167023 0.192482 -0.229888
v -0.000000 0.162449 -0.000000
v -0.000000 1.200138 -0.000000
v -0.000000 1.200138 -0.000000
v -0.000000 1.200138 -0.000000
v -0.000000 1.200138 -0.000000
v -0.000000 1.200138 -0.000000
v -0.000000 1.200138 -0.000000
v -0.000000 1.200138 -0.000000
v -0.000000 1.200138 -0.000000
v -0.000000 1.200138 -0.000000
v -0.000000 1.041274 -0.284157
v -0.000000 0.742718 -0.459775
v -0.000000 0.742718 -0.459775
v -0.000000 1.041274 -0.284157
v -0.000000 0.418509 -0.459775
v -0.000000 0.418509 -0.459775
v -0.000000 0.742718 -0.459775
v -0.000000 0.192482 -0.284156
v -0.000000 0.192482 -0.284156
v -0.000000 0.418509 -0.459775
v -0.000000 0.162449 -0.000000
v -0.000000 0.162449 -0.000000
v -0.000000 0.162449 -0.000000
v -0.000000 0.162449 -0.000000
v -0.000000 0.162449 -0.000000
v -0.000000 0.162449 -0.000000
v -0.000000 0.162449 -0.000000
v -0.000000 0.162449 -0.000000
v -0.000000 0.162449 -0.000000
v -0.000000 0.192482 -0.284156
vt 0.000000 1.000000
vt 0.000000 0.800000
vt 0.100000 0.800000
vt 0.100000 1.000000
vt 0.200000 0.800000
vt 0.200000 1.000000
vt 0.300000 0.800000
vt 0.300000 1.000000
vt 0.400000 0.800000
vt 0.400000 1.000000
vt 0.500000 0.800000
vt 0.500000 1.000000
vt 0.600000 0.800000
vt 0.600000 1.000000
vt 0.700000 0.800000
vt 0.700000 1.000000
vt 0.800000 0.800000
vt 0.800000 1.000000
vt 0.900000 0.800000
vt 0.900000 1.000000
vt 1.000000 0.800000
vt 0.000000 0.600000
vt 0.100000 0.600000
vt 0.200000 0.600000
vt 0.300000 0.600000
vt 0.400000 0.600000
vt 0.500000 0.600000
vt 0.600000 0.600000
vt 0.700000 0.600000
vt 0.800000 0.600000
vt 0.900000 0.600000
vt 1.000000 0.600000
vt 0.000000 0.400000
vt 0.100000 0.400000
vt 0.200000 0.400000
vt 0.300000 0.400000
vt 0.400000 0.400000
vt 0.500000 0.400000
vt 0.600000 0.400000
vt 0.700000 0.400000
vt 0.800000 0.400000
vt 0.900000 0.400000
vt 1.000000 0.400000
vt 0.000000 0.200000
vt 0.100000 0.200000
vt 0.200000 0.200000
vt 0.300000 0.200000
vt 0.400000 0.200000
vt 0.500000 0.200000
vt 0.600000 0.200000
vt 0.700000 0.200000
vt 0.800000 0.200000
vt 0.900000 0.200000
vt 1.000000 0.200000
vt 0.000000 0.000000
vt 0.100000 0.000000
vt 0.200000 0.000000
vt 0.300000 0.000000
vt 0.400000 0.000000
vt 0.500000 0.000000
vt 0.600000 0.000000
vt 0.700000 0.000000
vt 0.800000 0.000000
vt 0.900000 0.000000
vn -0.156600 0.862082 -0.481966
vn -0.228994 0.671461 -0.704771
vn -0.425562 0.689790 -0.585736
vn -0.409984 0.862082 -0.297871
vn -0.688573 0.689790 -0.223731
vn -0.506768 0.862082 0.000000
vn -0.688574 0.689790 0.223731
vn -0.409984 0.862082 0.297871
vn -0.425562 0.689790 0.585735
vn -0.156600 0.862083 0.481965
vn -0.000000 0.689790 0.724009
vn 0.156600 0.862082 0.481966
vn 0.425562 0.689790 0.585736
vn 0.409984 0.862082 0.297871
vn 0.688574 0.689790 0.223731
vn 0.506768 0.862082 -0.000001
vn 0.688573 0.689790 -0.223732
vn 0.409984 0.862082 -0.297871
vn 0.545590 0.650001 -0.528990
vn 0.156600 0.862082 -0.481966
vn -0.300065 0.238952 -0.923506
vn -0.569018 0.250465 -0.783197
vn -0.920713 0.250465 -0.299142
vn -0.920713 0.250465 0.299142
vn -0.569018 0.250465 0.783197
vn 0.000000 0.250465 0.968108
vn 0.569018 0.250465 0.783197
vn 0.920713 0.250465 0.299142
vn 0.920713 0.250465 -0.299142
vn 0.606255 0.291313 -0.739994
vn 0.269684 0.488229 -0.830002
vn 0.269683 0.488229 -0.830002
vn -0.295496 -0.292564 -0.909444
vn -0.559526 -0.306223 -0.770135
vn -0.905362 -0.306223 -0.294168
vn -0.905362 -0.306223 0.294168
vn -0.559526 -0.306223 0.770135
vn 0.000000 -0.306223 0.951933
vn 0.559526 -0.306223 0.770135
vn 0.905362 -0.306223 0.294168
vn 0.905362 -0.306223 -0.294168
vn 0.608289 -0.244063 -0.755260
vn 0.309017 -0.000000 -0.951057
vn -0.173255 -0.828043 -0.533224
vn -0.318234 -0.840757 -0.438011
vn -0.514913 -0.840757 -0.167305
vn -0.514913 -0.840757 0.167305
vn -0.318234 -0.840757 0.438011
vn 0.000000 -0.840757 0.541412
vn 0.318234 -0.840757 0.438011
vn 0.514914 -0.840757 0.167305
vn 0.514913 -0.840757 -0.167306
vn 0.387355 -0.763690 -0.516463
vn 0.248525 -0.594299 -0.764882
vn -0.034132 -0.993881 -0.105047
vn -0.089358 -0.993881 -0.064923
vn -0.110453 -0.993881 0.000000
vn -0.089359 -0.993881 0.064923
vn -0.034132 -0.993881 0.105047
vn 0.034132 -0.993881 0.105047
vn 0.089359 -0.993881 0.064923
vn 0.110453 -0.993881 -0.000000
vn 0.089358 -0.993881 -0.064923
vn 0.034132 -0.993881 -0.105047
usemtl tree
s 1
f 20/17/17 21/18/18 22/19/19
f 62/20/20 22/19/19 23/21/21
f 63/22/22 23/21/21 24/23/23
f 64/24/24 24/23/23 25/25/25
f 65/26/26 25/25/25 26/27/27
f 66/28/28 26/27/27 27/29/29
f 67/30/30 27/29/29 28/31/31
f 68/32/32 28/31/31 29/33/33
f 69/34/34 29/33/33 30/35/35
f 70/36/36 30/35/36 71/37/36
f 21/18/18 31/38/37 32/39/38
f 21/18/18 32/39/38 22/19/19
f 22/19/19 32/39/38 33/40/39
f 22/19/19 33/40/39 23/21/21
f 23/21/21 33/40/39 34/41/40
f 23/21/21 34/41/40 24/23/23
f 24/23/23 34/41/40 35/42/41
f 24/23/23 35/42/41 25/25/25
f 25/25/25 35/42/41 36/43/42
f 25/25/25 36/43/42 26/27/27
f 26/27/27 36/43/42 37/44/43
f 26/27/27 37/44/43 27/29/29
f 27/29/29 37/44/43 38/45/44
f 27/29/29 38/45/44 28/31/31
f 28/31/31 38/45/44 39/46/45
f 28/31/31 39/46/45 29/33/33
f 29/33/33 39/46/45 40/47/46
f 29/33/33 40/47/46 30/35/35
f 30/35/35 40/47/46 72/48/47
f 30/35/48 73/48/48 74/37/48
f 31/38/37 41/49/49 42/50/50
f 31/38/37 42/50/50 32/39/38
f 32/39/38 42/50/50 43/51/51
f 32/39/38 43/51/51 33/40/39
f 33/40/39 43/51/51 44/52/52
f 33/40/39 44/52/52 34/41/40
f 34/41/40 44/52/52 45/53/53
f 34/41/40 45/53/53 35/42/41
f 35/42/41 45/53/53 46/54/54
f 35/42/41 46/54/54 36/43/42
f 36/43/42 46/54/54 47/55/55
f 36/43/42 47/55/55 37/44/43
f 37/44/43 47/55/55 48/56/56
f 37/44/43 48/56/56 38/45/44
f 38/45/44 48/56/56 49/57/57
f 38/45/44 49/57/57 39/46/45
f 39/46/45 49/57/57 50/58/58
f 39/46/45 50/58/58 40/47/46
f 40/47/46 50/58/58 75/59/59
f 40/47/59 76/59/59 77/48/59
f 41/49/49 51/60/60 52/61/61
f 41/49/49 52/61/61 42/50/50
f 42/50/50 52/61/61 53/62/62
f 42/50/50 53/62/62 43/51/51
f 43/51/51 53/62/62 54/63/63
f 43/51/51 54/63/63 44/52/52
f 44/52/52 54/63/63 55/64/64
f 44/52/52 55/64/64 45/53/53
f 45/53/53 55/64/64 56/65/65
f 45/53/53 56/65/65 46/54/54
f 46/54/54 56/65/65 57/66/66
f 46/54/54 57/66/66 47/55/55
f 47/55/55 57/66/66 58/67/67
f 47/55/55 58/67/67 48/56/56
f 48/56/56 58/67/67 59/68/68
f 48/56/56 59/68/68 49/57/57
f 49/57/57 59/68/68 60/69/69
f 49/57/57 60/69/69 50/58/58
f 50/58/58 60/69/69 78/70/70
f 50/58/70 79/70/70 80/59/70
f 61/71/71 52/61/61 51/60/60
f 81/72/72 53/62/62 52/61/61
f 82/73/73 54/63/63 53/62/62
f 83/74/74 55/64/64 54/63/63
f 84/75/75 56/65/65 55/64/64
f 85/76/76 57/66/66 56/65/65
f 86/77/77 58/67/67 57/66/66
f 87/78/78 59/68/68 58/67/67
f 88/79/79 60/69/69 59/68/68
f 89/80/80 90/70/80 60/69/80
